<?xml version="1.0" encoding="UTF-8" standalone="no"?>
<!-- Created with Inkscape (http://www.inkscape.org/) -->

<svg
   width="512"
   height="512"
   viewBox="0 0 135.46694 135.46694"
   version="1.1"
   id="svg1"
   inkscape:version="1.4.2 (f4327f4, 2025-05-13)"
   sodipodi:docname="favicon.svg"
   xml:space="preserve"
   xmlns:inkscape="http://www.inkscape.org/namespaces/inkscape"
   xmlns:sodipodi="http://sodipodi.sourceforge.net/DTD/sodipodi-0.dtd"
   xmlns="http://www.w3.org/2000/svg"
   xmlns:svg="http://www.w3.org/2000/svg"><sodipodi:namedview
     id="namedview1"
     pagecolor="#505050"
     bordercolor="#eeeeee"
     borderopacity="1"
     inkscape:showpageshadow="0"
     inkscape:pageopacity="0"
     inkscape:pagecheckerboard="0"
     inkscape:deskcolor="#505050"
     inkscape:document-units="in"
     inkscape:zoom="0.61914063"
     inkscape:cx="469.19873"
     inkscape:cy="100.94637"
     inkscape:window-width="1920"
     inkscape:window-height="1009"
     inkscape:window-x="-8"
     inkscape:window-y="-8"
     inkscape:window-maximized="1"
     inkscape:current-layer="layer1" /><defs
     id="defs1"><inkscape:path-effect
       effect="roughen"
       id="path-effect19"
       is_visible="true"
       lpeversion="1.2"
       global_randomize="1;2126933698"
       displace_x="0.15;800987873"
       displace_y="0.112632;1"
       method="size"
       max_segment_size="0.5"
       segments="2"
       handles="along"
       shift_nodes="true"
       fixed_displacement="false"
       spray_tool_friendly="false" /><inkscape:path-effect
       effect="roughen"
       id="path-effect18"
       is_visible="true"
       lpeversion="1.2"
       global_randomize="1;1"
       displace_x="0.15;1"
       displace_y="0.11;1"
       method="size"
       max_segment_size="0.5"
       segments="2"
       handles="along"
       shift_nodes="true"
       fixed_displacement="false"
       spray_tool_friendly="false" /><inkscape:path-effect
       effect="fillet_chamfer"
       id="path-effect17"
       is_visible="true"
       lpeversion="1"
       nodesatellites_param="F,0,0,1,0,0.79375155,0,1 @ F,0,0,1,0,0.79375155,0,1 @ F,0,0,1,0,0.79375155,0,1 @ F,0,0,1,0,0.79375155,0,1"
       radius="3"
       unit="px"
       method="auto"
       mode="F"
       chamfer_steps="1"
       flexible="false"
       use_knot_distance="true"
       apply_no_radius="true"
       apply_with_radius="true"
       only_selected="false"
       hide_knots="false" /><inkscape:path-effect
       effect="fillet_chamfer"
       id="path-effect16"
       is_visible="true"
       lpeversion="1"
       nodesatellites_param="F,0,0,1,0,0.79375155,0,1 @ F,0,0,1,0,0.79375155,0,1 @ F,0,0,1,0,0.79375155,0,1 @ F,0,0,1,0,0.79375155,0,1"
       radius="3"
       unit="px"
       method="auto"
       mode="F"
       chamfer_steps="1"
       flexible="false"
       use_knot_distance="true"
       apply_no_radius="true"
       apply_with_radius="true"
       only_selected="false"
       hide_knots="false" /><inkscape:path-effect
       effect="fillet_chamfer"
       id="path-effect11"
       is_visible="true"
       lpeversion="1"
       nodesatellites_param="F,0,0,1,0,0,0,1 @ F,0,0,1,0,0,0,1 @ F,0,0,1,0,0,0,1 @ F,0,0,1,0,0,0,1 @ F,0,0,1,0,0,0,1 @ F,0,0,1,0,0,0,1 @ F,0,0,1,0,0,0,1 @ F,0,0,1,0,0,0,1 @ F,0,0,1,0,0,0,1 @ F,0,0,1,0,0,0,1 @ F,0,0,1,0,0,0,1 @ F,0,0,1,0,0,0,1 @ F,0,0,1,0,0,0,1 @ F,0,0,1,0,0,0,1 @ F,0,0,1,0,0,0,1 @ F,0,0,1,0,0,0,1 @ F,0,0,1,0,0,0,1 @ F,0,0,1,0,0,0,1 @ F,0,0,1,0,0,0,1 @ F,0,0,1,0,0,0,1 @ F,0,0,1,0,0,0,1 @ F,0,0,1,0,0,0,1 @ F,0,0,1,0,0,0,1 @ F,0,0,1,0,0,0,1 @ F,0,0,1,0,0,0,1 @ F,0,0,1,0,0,0,1 @ F,0,0,1,0,0,0,1 @ F,0,0,1,0,0,0,1 @ F,0,0,1,0,0,0,1 @ F,0,0,1,0,0,0,1 @ F,0,0,1,0,0,0,1 @ F,0,0,1,0,0,0,1 @ F,0,0,1,0,0,0,1 @ F,0,0,1,0,0,0,1 @ F,0,0,1,0,0,0,1 @ F,0,0,1,0,0,0,1 @ F,0,0,1,0,0,0,1 @ F,0,0,1,0,0,0,1 @ F,0,0,1,0,0,0,1 @ F,0,0,1,0,0,0,1"
       radius="1"
       unit="px"
       method="auto"
       mode="F"
       chamfer_steps="1"
       flexible="false"
       use_knot_distance="true"
       apply_no_radius="true"
       apply_with_radius="true"
       only_selected="false"
       hide_knots="false" /><inkscape:path-effect
       effect="fillet_chamfer"
       id="path-effect10"
       is_visible="true"
       lpeversion="1"
       nodesatellites_param="F,0,0,1,0,0.26458385,0,1 @ F,0,0,1,0,0.26458385,0,1 @ F,0,0,1,0,0.26458385,0,1 @ F,0,0,1,0,0.26458385,0,1"
       radius="1"
       unit="px"
       method="auto"
       mode="F"
       chamfer_steps="1"
       flexible="false"
       use_knot_distance="true"
       apply_no_radius="true"
       apply_with_radius="true"
       only_selected="false"
       hide_knots="false" /><inkscape:path-effect
       effect="fillet_chamfer"
       id="path-effect9"
       is_visible="true"
       lpeversion="1"
       nodesatellites_param="F,0,0,1,0,0.26458385,0,1 @ F,0,0,1,0,0.26458385,0,1 @ F,0,0,1,0,0.26458385,0,1 @ F,0,0,1,0,0.26458385,0,1 @ F,0,0,1,0,0.26458385,0,1 @ F,0,0,1,0,0.26458385,0,1 @ F,0,0,1,0,0.26458385,0,1 @ F,0,0,1,0,0.26458385,0,1 @ F,0,0,1,0,0.26458385,0,1 | F,0,0,1,0,0.26458385,0,1 @ F,0,0,1,0,0.26458385,0,1 @ F,0,0,1,0,0.26458385,0,1 @ F,0,0,1,0,0.26458385,0,1 @ F,0,0,1,0,0.26458385,0,1 @ F,0,0,1,0,0.26458385,0,1 @ F,0,0,1,0,0.26458385,0,1 @ F,0,0,1,0,0.26458385,0,1 @ F,0,0,1,0,0.26458385,0,1"
       radius="1"
       unit="px"
       method="auto"
       mode="F"
       chamfer_steps="1"
       flexible="false"
       use_knot_distance="true"
       apply_no_radius="true"
       apply_with_radius="true"
       only_selected="false"
       hide_knots="false" /><inkscape:path-effect
       effect="fillet_chamfer"
       id="path-effect8"
       is_visible="true"
       lpeversion="1"
       nodesatellites_param="F,0,0,1,0,0.26458385,0,1 @ F,0,0,1,0,0.26458385,0,1 @ F,0,0,1,0,0.26458385,0,1 @ F,0,0,1,0,0.26458385,0,1 @ F,0,0,1,0,0.26458385,0,1 @ F,0,0,1,0,0.26458385,0,1 @ F,0,0,1,0,0.26458385,0,1 @ F,0,0,1,0,0.26458385,0,1 @ F,0,0,1,0,0.26458385,0,1 @ F,0,0,1,0,0.26458385,0,1 @ F,0,0,1,0,0.26458385,0,1 @ F,0,0,1,0,0.26458385,0,1 @ F,0,0,1,0,0.26458385,0,1 @ F,0,0,1,0,0.26458385,0,1 @ F,0,0,1,0,0.26458385,0,1 @ F,0,0,1,0,0.26458385,0,1 @ F,0,0,1,0,0.26458385,0,1 @ F,0,0,1,0,0.26458385,0,1"
       radius="1"
       unit="px"
       method="auto"
       mode="F"
       chamfer_steps="1"
       flexible="false"
       use_knot_distance="true"
       apply_no_radius="true"
       apply_with_radius="true"
       only_selected="false"
       hide_knots="false" /><inkscape:path-effect
       effect="fillet_chamfer"
       id="path-effect7"
       is_visible="true"
       lpeversion="1"
       nodesatellites_param="F,0,0,1,0,0.26458385,0,1 @ F,0,0,1,0,0.26458385,0,1 @ F,0,0,1,0,0.26458385,0,1 @ F,0,0,1,0,0.26458385,0,1 @ F,0,0,1,0,0.26458385,0,1 @ F,0,0,1,0,0.26458385,0,1 @ F,0,0,1,0,0.26458385,0,1 @ F,0,0,1,0,0.26458385,0,1"
       radius="1"
       unit="px"
       method="auto"
       mode="F"
       chamfer_steps="1"
       flexible="false"
       use_knot_distance="true"
       apply_no_radius="true"
       apply_with_radius="true"
       only_selected="false"
       hide_knots="false" /><inkscape:path-effect
       effect="fillet_chamfer"
       id="path-effect6"
       is_visible="true"
       lpeversion="1"
       nodesatellites_param="F,0,0,1,0,0.26458387,0,1 @ F,0,0,1,0,0.26458392,0,1 @ F,0,0,1,0,0.22044536,0,1 @ F,0,0,1,0,0.26458385,0,1 @ F,0,0,1,0,0.27322201,0,1 @ F,0,0,1,0,0.28040354,0,1 @ F,0,0,1,0,0.26458374,0,1 @ F,0,0,1,0,0.26458418,0,1 @ F,0,0,1,0,0.26456486,0,1 @ F,0,0,1,0,0.26508976,0,1 @ F,0,0,1,0,0.2852301,0,1 @ F,0,0,1,0,0.26458389,0,1 @ F,0,0,1,0,0.26458385,0,1 @ F,0,0,1,0,0.26458384,0,1 @ F,0,0,1,0,0.26458371,0,1 @ F,0,0,1,0,0.26458356,0,1 @ F,0,0,1,0,0.26458384,0,1 @ F,0,0,1,0,0.26458362,0,1 @ F,0,0,1,0,0.26458378,0,1 @ F,0,0,1,0,0.26458383,0,1 @ F,0,0,1,0,0.26458385,0,1 @ F,0,0,1,0,0.26458387,0,1 @ F,0,0,1,0,0.20007965,0,1 @ F,0,0,1,0,0.26458385,0,1 @ F,0,0,1,0,0.26458385,0,1 @ F,0,0,1,0,0.27942578,0,1 @ F,0,0,1,0,0.27316412,0,1 @ F,0,0,1,0,0.26458381,0,1 @ F,0,0,1,0,0.26458432,0,1 @ F,0,0,1,0,0.26457908,0,1 @ F,0,0,1,0,0.26458011,0,1 @ F,0,0,1,0,0.26458393,0,1 @ F,0,0,1,0,0.26458386,0,1 @ F,0,0,1,0,0.26458385,0,1 @ F,0,0,1,0,0.2645838,0,1 @ F,0,0,1,0,0.26458334,0,1 @ F,0,0,1,0,0.26458362,0,1 @ F,0,0,1,0,0.26458366,0,1 @ F,0,0,1,0,0.26458379,0,1 @ F,0,0,1,0,0.26458385,0,1"
       radius="1"
       unit="px"
       method="auto"
       mode="F"
       chamfer_steps="1"
       flexible="false"
       use_knot_distance="true"
       apply_no_radius="true"
       apply_with_radius="true"
       only_selected="false"
       hide_knots="false" /></defs><g
     inkscape:label="Layer 1"
     inkscape:groupmode="layer"
     id="layer1"><g
       id="g19"
       transform="matrix(2.7906374,0,0,2.7906374,-154.04814,-435.15671)"><path
         style="font-variation-settings:'wght' 500;fill:#ad5136;fill-opacity:1;stroke-width:0.0897279;stroke-linecap:round;stroke-linejoin:round;stroke-dasharray:none"
         id="rect12-8"
         width="38.100075"
         height="16.894766"
         x="65.476311"
         y="-199.66069"
         transform="scale(1,-1)"
         inkscape:transform-center-x="8.05232"
         inkscape:transform-center-y="-12.11858"
         inkscape:path-effect="#path-effect17;#path-effect19"
         sodipodi:type="rect"
         d="m 66.294914,-199.66069 0.405216,-0.0198 0.537964,0.0511 0.518415,-0.0244 0.497836,-0.0136 0.444044,-0.004 0.561614,0.0152 0.434893,-0.0352 0.483648,0.0162 0.544506,0.003 0.401256,0.0103 0.467013,0.006 0.582581,0.0114 0.51165,-0.0238 0.491545,-0.0381 0.53028,0.0287 0.467029,5.8e-4 0.493605,0.007 0.45057,0.001 0.532597,0.0389 0.549498,-0.0442 0.423599,0.002 0.396275,3.3e-4 0.600527,0.01 0.464164,-0.0227 0.535253,-0.004 0.444492,-0.005 0.549114,-0.0105 0.482284,-0.0194 0.505099,-0.002 0.484181,-0.003 0.505293,-0.0111 0.46899,0.004 0.511283,0.0168 0.488427,0.0196 0.478514,0.0716 0.416076,-0.005 0.521679,0.0186 0.581031,-0.0686 0.451426,0.003 0.462962,0.0687 0.532015,-0.0202 0.443428,0.004 0.570593,-0.009 0.46703,-0.003 0.476051,-0.0608 0.595877,-0.002 0.383028,9.9e-4 0.428998,-0.0521 0.571368,-0.0522 0.438899,-0.0395 0.484339,0.0121 0.471926,0.0679 0.58712,0.0209 0.460725,-0.0344 0.53203,0.003 0.473898,0.0175 0.508194,0.002 0.561873,0.0617 0.393109,0.003 0.528225,0.0475 0.532556,-0.006 0.440991,-0.024 0.473686,0.0179 0.524655,0.001 0.489964,0.0122 0.508348,-0.002 0.473392,-3.6e-4 0.506343,-0.0254 0.503886,0.008 0.4823,-0.0324 0.48435,0.0741 0.48516,0.004 0.6116,-0.0309 0.38064,-0.0237 c 0.14769,0.004 0.28628,0.0463 0.40456,0.1167 0.11877,0.0713 0.24725,0.16037 0.31614,0.2779 0.0691,0.11786 0.12332,0.20756 0.12332,0.35389 l -0.001,0.5017 0.002,0.51455 -0.0699,0.43092 0.024,0.51427 -0.005,0.52177 -0.0366,0.4673 0.0235,0.50458 0.0254,0.5062 -0.002,0.51054 0.0117,0.50564 0.0337,0.45983 -0.0961,0.50046 0.0768,0.52095 0.0324,0.42685 -0.0175,0.52535 0.06,0.5185 0.0552,0.55015 0.008,0.44233 -0.011,0.53627 -0.11405,0.4541 -0.003,0.45891 0.0248,0.53125 -0.0207,0.50911 -0.0643,0.52529 0.002,0.46083 -0.0113,0.5079 0.0336,0.48436 -0.0612,0.48733 0.0366,0.50159 0.019,0.5532 0.002,0.46024 c -2.5e-4,0.13638 -0.0371,0.28919 -0.10611,0.40245 -0.0655,0.13454 -0.15332,0.20725 -0.27007,0.26938 -0.11912,0.0634 -0.31695,0.0964 -0.46454,0.0964 l -0.47388,-0.001 -0.51985,-0.0242 -0.52772,0.002 -0.47339,0.0119 -0.44076,-0.045 -0.517642,-0.003 -0.484166,-0.007 -0.459297,-0.0225 -0.527623,0.001 -0.514815,0.004 -0.447397,-0.01 -0.542701,0.002 -0.440809,0.0217 -0.525791,0.0248 -0.38355,7e-5 -0.597937,0.0504 -0.501548,0.004 -0.546947,-0.006 -0.43553,-0.004 -0.501716,-0.003 -0.496147,0.009 -0.499764,-0.007 -0.476729,-0.003 -0.470003,-0.0431 -0.476828,0.008 -0.545425,5.4e-4 -0.47505,-0.002 -0.515485,-0.001 -0.483855,0.0226 -0.458046,-0.0257 -0.510824,0.01 -0.492351,-0.0131 -0.495086,0.0375 -0.493342,0.01 -0.493187,-9.6e-4 -0.460159,0.0125 -0.544475,-0.006 -0.534373,3e-4 -0.436397,0.002 -0.477529,-0.10047 -0.519035,0.005 -0.485687,-0.021 -0.467681,0.009 -0.50068,0.0321 -0.520388,-0.005 -0.460775,-0.0265 -0.481733,-1e-4 -0.591855,-0.007 -0.337912,0.0508 -0.577781,0.003 -0.473878,0.01 -0.524185,0.0707 -0.499069,-0.0232 -0.4716,-0.002 -0.556858,0.0286 -0.438788,0.0109 -0.481615,0.0628 -0.510212,0.0341 -0.460362,0.008 -0.47217,-0.005 -0.522938,-0.023 -0.571725,0.0173 -0.458436,-0.0188 -0.454216,-0.0254 -0.473389,0.005 -0.527742,0.0276 -0.471958,-0.0163 -0.49394,-0.0109 -0.484873,-0.0708 -0.501012,-0.007 -0.464345,0.006 -0.525357,0.003 -0.486186,-0.0203 -0.500179,-0.007 c -0.14602,-8e-4 -0.24419,-0.041 -0.361736,-0.11027 -0.08178,-0.0711 -0.250309,-0.15685 -0.329287,-0.27834 -0.07518,-0.11566 -0.12054,-0.25697 -0.12054,-0.3995 l -0.0048,-0.51706 0.0241,-0.46021 0.0022,-0.48123 -0.01078,-0.50984 0.01044,-0.48909 -0.01447,-0.51727 -0.0038,-0.52067 0.06112,-0.4669 0.01812,-0.48746 0.0084,-0.48024 -0.01042,-0.49066 -0.0059,-0.58386 -0.02072,-0.41238 0.02182,-0.50284 0.02327,-0.50576 -0.0049,-0.52403 0.03648,-0.44806 -0.0043,-0.49818 -0.0083,-0.50532 0.04548,-0.47985 -0.03169,-0.49243 -0.01374,-0.49396 -0.07398,-0.4752 0.02551,-0.48144 0.103499,-0.56146 -0.05602,-0.46965 -0.01137,-0.48331 -0.02239,-0.51753 0.04655,-0.47371 -0.06221,-0.4906 -0.05213,-0.50033 c 0.001,-0.14438 0.05787,-0.27336 0.127214,-0.39018 0.08509,-0.10852 0.158621,-0.2118 0.270183,-0.28202 0.114521,-0.0721 0.276281,-0.11633 0.424319,-0.11633 z" /><path
         style="font-variation-settings:'wght' 500;fill:#ad5136;fill-opacity:1;stroke-width:0.1016;stroke-linecap:round;stroke-linejoin:round;stroke-dasharray:none"
         id="rect12-8-1"
         width="38.100075"
         height="16.894766"
         x="55.215462"
         y="-177.47426"
         transform="scale(1,-1)"
         inkscape:transform-center-x="8.05232"
         inkscape:transform-center-y="-12.11858"
         inkscape:path-effect="#path-effect16;#path-effect18"
         sodipodi:type="rect"
         d="m 55.994409,-177.48914 0.479932,-0.0151 0.608641,0.0128 0.385651,-0.0233 0.495492,-0.0156 0.51071,-4.6e-4 0.518259,0.0104 0.442516,-0.032 0.565337,0.0141 0.449425,0.001 0.516752,0.0106 0.472947,0.002 0.494301,0.001 0.457669,-0.0638 0.499171,-0.0365 0.560098,0.004 0.455684,0.004 0.494393,0.004 0.497325,0.006 0.613888,0.007 0.349898,-0.0729 0.520039,0.008 0.487419,0.007 0.564983,0.0263 0.415422,-0.005 0.49499,-0.001 0.484291,-0.0123 0.487289,-0.0123 0.502838,-0.0345 0.491986,-0.002 0.499397,0.003 0.480704,-0.0492 0.592246,0.0255 0.429808,0.0168 0.509734,0.0246 0.535604,0.0109 0.386003,-0.0308 0.550521,0.0163 0.440792,-0.0727 0.528537,0.014 0.542123,0.009 0.415031,-0.0116 0.553675,0.0284 0.439001,-0.005 0.502824,0.004 0.465761,-0.0585 0.507271,-0.0174 0.489006,-0.0431 0.51225,-0.0273 0.49987,-0.0651 0.501965,-0.0187 0.500474,0.0218 0.607975,0.0372 0.421444,0.021 0.431014,-0.0799 0.510369,0.0211 0.522467,0.0393 0.460208,0.0183 0.5579,0.0367 0.431295,0.02 0.556367,0.0333 0.424032,0.0165 0.473495,-0.004 0.551977,0.0376 0.466273,0.0284 0.503563,0.0352 0.505659,0.04 0.532186,0.0366 0.388399,-0.0387 0.530515,0.0319 0.463102,-0.004 0.597179,0.0412 0.488972,0.0479 0.410361,-0.018 0.484167,0.045 c 0.148963,0.003 0.335107,0.0471 0.453962,0.11712 0.16249,0.0711 0.194983,0.15445 0.252354,0.26671 0.06107,0.1195 0.09262,0.19203 0.09262,0.34272 l 0.0051,0.49895 0.02684,0.50424 -0.01044,0.46141 -0.01547,0.50094 0.08233,0.53966 -0.01337,0.45819 -0.01723,0.49729 -0.0032,0.50848 0.0016,0.49704 0.02313,0.49903 -0.03335,0.44337 -0.0041,0.5168 0.0832,0.54714 -0.01062,0.40576 -0.0088,0.55569 -0.0069,0.50626 0.07708,0.5213 -0.02393,0.46299 0.04987,0.53058 -0.02428,0.4683 -0.0282,0.41686 -0.04534,0.54803 0.0822,0.53409 0.03556,0.5105 -0.01656,0.49204 -0.0061,0.49575 -0.0236,0.49905 -0.03941,0.48759 0.03143,0.50411 -0.01037,0.50319 -0.07249,0.46864 c -0.02711,0.14581 0.02904,0.29397 -0.05189,0.41142 0.02438,0.14111 -0.211913,0.24899 -0.379726,0.31501 -0.136252,0.0536 -0.29449,0.0765 -0.425448,0.0765 l -0.499697,-0.005 -0.496222,-0.0171 -0.450163,0.0191 -0.51861,0.006 -0.526004,-0.0477 -0.474172,-0.005 -0.491897,-7.8e-4 -0.509905,-0.0276 -0.476397,9.9e-4 -0.483986,0.006 -0.516586,-0.01 -0.454821,0.0152 -0.492382,0.0167 -0.472971,0.023 -0.541725,-2.2e-4 -0.385185,0.0102 -0.585003,0.009 -0.520858,-0.01 -0.485789,-0.002 -0.491504,-6.3e-4 -0.482486,0.007 -0.507995,-0.004 -0.493673,-0.013 -0.507598,-0.0369 -0.472043,0.002 -0.501778,-0.002 -0.501644,-0.0211 -0.489471,-0.005 -0.402802,0.0106 -0.580744,-0.0109 -0.445507,0.0242 -0.56541,-0.0419 -0.372119,0.0266 -0.583903,0.003 -0.497208,0.002 -0.487632,0.003 -0.500194,9.2e-4 -0.478955,0.0109 -0.505412,0.003 -0.49875,-0.0997 -0.491081,0.005 -0.51825,-0.0207 -0.457036,0.0134 -0.463806,0.0218 -0.545343,-0.002 -0.49243,-0.015 -0.493908,-0.0279 -0.504724,-0.0109 -0.427445,0.0151 -0.535497,0.009 -0.476682,0.0204 -0.424084,0.0234 -0.604381,-0.0135 -0.477298,0.003 -0.470633,0.01 -0.478139,0.016 -0.424966,0.0117 -0.527578,0.0281 -0.531608,0.0194 -0.4629,0.0257 -0.577085,-0.0176 -0.408506,0.008 -0.585589,-0.0444 -0.48647,-0.0147 -0.456718,0.009 -0.439644,0.0135 -0.570387,0.001 -0.478887,0.0152 -0.529763,-0.0673 -0.471149,0.0217 -0.472736,0.0355 -0.492812,0.031 -0.529215,-0.004 -0.464186,0.0377 c -0.149607,-0.002 -0.290493,-0.0443 -0.409634,-0.11411 -0.120518,-0.0709 -0.187255,-0.15328 -0.256088,-0.27042 -0.06916,-0.1177 -0.08525,-0.26833 -0.08525,-0.4148 l -0.02495,-0.53043 0.0084,-0.45255 0.03019,-0.48099 0.02262,-0.50874 0.05713,-0.47295 -0.0114,-0.53177 -0.0087,-0.5085 -0.0069,-0.51249 -0.0096,-0.45035 0.02525,-0.48085 0.0085,-0.49718 -0.01091,-0.56886 0.01426,-0.41696 -0.0088,-0.50403 -0.03823,-0.54217 -0.01212,-0.47312 -0.0036,-0.46211 -0.0097,-0.49799 -0.02119,-0.50405 -0.0017,-0.47929 0.0011,-0.49341 3.4e-4,-0.49443 0.0045,-0.49203 0.04384,-0.47374 -0.01747,-0.54763 -0.01639,-0.46655 -0.0058,-0.48669 -0.0356,-0.51691 -0.0094,-0.47458 -0.0013,-0.48871 -0.02925,-0.52221 c 0.0046,-0.13805 0.05495,-0.26635 0.125857,-0.38035 0.07832,-0.11008 0.167339,-0.20987 0.282508,-0.27859 0.116629,-0.0696 0.237223,-0.12545 0.384269,-0.12545 z" /></g></g></svg>
