<?xml version="1.0" encoding="UTF-8" standalone="no"?>
<!-- Created with Inkscape (http://www.inkscape.org/) -->

<svg
   width="1024"
   height="512"
   viewBox="0 0 270.93388 135.46694"
   version="1.1"
   id="svg1"
   inkscape:version="1.4.2 (f4327f4, 2025-05-13)"
   sodipodi:docname="logo.svg"
   xml:space="preserve"
   xmlns:inkscape="http://www.inkscape.org/namespaces/inkscape"
   xmlns:sodipodi="http://sodipodi.sourceforge.net/DTD/sodipodi-0.dtd"
   xmlns="http://www.w3.org/2000/svg"
   xmlns:svg="http://www.w3.org/2000/svg"><sodipodi:namedview
     id="namedview1"
     pagecolor="#505050"
     bordercolor="#eeeeee"
     borderopacity="1"
     inkscape:showpageshadow="0"
     inkscape:pageopacity="0"
     inkscape:pagecheckerboard="0"
     inkscape:deskcolor="#505050"
     inkscape:document-units="in"
     inkscape:zoom="0.61914063"
     inkscape:cx="597.60252"
     inkscape:cy="230.15773"
     inkscape:window-width="1920"
     inkscape:window-height="1009"
     inkscape:window-x="-8"
     inkscape:window-y="-8"
     inkscape:window-maximized="1"
     inkscape:current-layer="layer1" /><defs
     id="defs1"><inkscape:path-effect
       effect="roughen"
       id="path-effect19"
       is_visible="true"
       lpeversion="1.2"
       global_randomize="1;2126933698"
       displace_x="0.15;800987873"
       displace_y="0.112632;1"
       method="size"
       max_segment_size="0.5"
       segments="2"
       handles="along"
       shift_nodes="true"
       fixed_displacement="false"
       spray_tool_friendly="false" /><inkscape:path-effect
       effect="roughen"
       id="path-effect18"
       is_visible="true"
       lpeversion="1.2"
       global_randomize="1;1"
       displace_x="0.15;1"
       displace_y="0.11;1"
       method="size"
       max_segment_size="0.5"
       segments="2"
       handles="along"
       shift_nodes="true"
       fixed_displacement="false"
       spray_tool_friendly="false" /><inkscape:path-effect
       effect="fillet_chamfer"
       id="path-effect17"
       is_visible="true"
       lpeversion="1"
       nodesatellites_param="F,0,0,1,0,0.79375155,0,1 @ F,0,0,1,0,0.79375155,0,1 @ F,0,0,1,0,0.79375155,0,1 @ F,0,0,1,0,0.79375155,0,1"
       radius="3"
       unit="px"
       method="auto"
       mode="F"
       chamfer_steps="1"
       flexible="false"
       use_knot_distance="true"
       apply_no_radius="true"
       apply_with_radius="true"
       only_selected="false"
       hide_knots="false" /><inkscape:path-effect
       effect="fillet_chamfer"
       id="path-effect16"
       is_visible="true"
       lpeversion="1"
       nodesatellites_param="F,0,0,1,0,0.79375155,0,1 @ F,0,0,1,0,0.79375155,0,1 @ F,0,0,1,0,0.79375155,0,1 @ F,0,0,1,0,0.79375155,0,1"
       radius="3"
       unit="px"
       method="auto"
       mode="F"
       chamfer_steps="1"
       flexible="false"
       use_knot_distance="true"
       apply_no_radius="true"
       apply_with_radius="true"
       only_selected="false"
       hide_knots="false" /><inkscape:path-effect
       effect="fillet_chamfer"
       id="path-effect11"
       is_visible="true"
       lpeversion="1"
       nodesatellites_param="F,0,0,1,0,0,0,1 @ F,0,0,1,0,0,0,1 @ F,0,0,1,0,0,0,1 @ F,0,0,1,0,0,0,1 @ F,0,0,1,0,0,0,1 @ F,0,0,1,0,0,0,1 @ F,0,0,1,0,0,0,1 @ F,0,0,1,0,0,0,1 @ F,0,0,1,0,0,0,1 @ F,0,0,1,0,0,0,1 @ F,0,0,1,0,0,0,1 @ F,0,0,1,0,0,0,1 @ F,0,0,1,0,0,0,1 @ F,0,0,1,0,0,0,1 @ F,0,0,1,0,0,0,1 @ F,0,0,1,0,0,0,1 @ F,0,0,1,0,0,0,1 @ F,0,0,1,0,0,0,1 @ F,0,0,1,0,0,0,1 @ F,0,0,1,0,0,0,1 @ F,0,0,1,0,0,0,1 @ F,0,0,1,0,0,0,1 @ F,0,0,1,0,0,0,1 @ F,0,0,1,0,0,0,1 @ F,0,0,1,0,0,0,1 @ F,0,0,1,0,0,0,1 @ F,0,0,1,0,0,0,1 @ F,0,0,1,0,0,0,1 @ F,0,0,1,0,0,0,1 @ F,0,0,1,0,0,0,1 @ F,0,0,1,0,0,0,1 @ F,0,0,1,0,0,0,1 @ F,0,0,1,0,0,0,1 @ F,0,0,1,0,0,0,1 @ F,0,0,1,0,0,0,1 @ F,0,0,1,0,0,0,1 @ F,0,0,1,0,0,0,1 @ F,0,0,1,0,0,0,1 @ F,0,0,1,0,0,0,1 @ F,0,0,1,0,0,0,1"
       radius="1"
       unit="px"
       method="auto"
       mode="F"
       chamfer_steps="1"
       flexible="false"
       use_knot_distance="true"
       apply_no_radius="true"
       apply_with_radius="true"
       only_selected="false"
       hide_knots="false" /><inkscape:path-effect
       effect="fillet_chamfer"
       id="path-effect10"
       is_visible="true"
       lpeversion="1"
       nodesatellites_param="F,0,0,1,0,0.26458385,0,1 @ F,0,0,1,0,0.26458385,0,1 @ F,0,0,1,0,0.26458385,0,1 @ F,0,0,1,0,0.26458385,0,1"
       radius="1"
       unit="px"
       method="auto"
       mode="F"
       chamfer_steps="1"
       flexible="false"
       use_knot_distance="true"
       apply_no_radius="true"
       apply_with_radius="true"
       only_selected="false"
       hide_knots="false" /><inkscape:path-effect
       effect="fillet_chamfer"
       id="path-effect9"
       is_visible="true"
       lpeversion="1"
       nodesatellites_param="F,0,0,1,0,0.26458385,0,1 @ F,0,0,1,0,0.26458385,0,1 @ F,0,0,1,0,0.26458385,0,1 @ F,0,0,1,0,0.26458385,0,1 @ F,0,0,1,0,0.26458385,0,1 @ F,0,0,1,0,0.26458385,0,1 @ F,0,0,1,0,0.26458385,0,1 @ F,0,0,1,0,0.26458385,0,1 @ F,0,0,1,0,0.26458385,0,1 | F,0,0,1,0,0.26458385,0,1 @ F,0,0,1,0,0.26458385,0,1 @ F,0,0,1,0,0.26458385,0,1 @ F,0,0,1,0,0.26458385,0,1 @ F,0,0,1,0,0.26458385,0,1 @ F,0,0,1,0,0.26458385,0,1 @ F,0,0,1,0,0.26458385,0,1 @ F,0,0,1,0,0.26458385,0,1 @ F,0,0,1,0,0.26458385,0,1"
       radius="1"
       unit="px"
       method="auto"
       mode="F"
       chamfer_steps="1"
       flexible="false"
       use_knot_distance="true"
       apply_no_radius="true"
       apply_with_radius="true"
       only_selected="false"
       hide_knots="false" /><inkscape:path-effect
       effect="fillet_chamfer"
       id="path-effect8"
       is_visible="true"
       lpeversion="1"
       nodesatellites_param="F,0,0,1,0,0.26458385,0,1 @ F,0,0,1,0,0.26458385,0,1 @ F,0,0,1,0,0.26458385,0,1 @ F,0,0,1,0,0.26458385,0,1 @ F,0,0,1,0,0.26458385,0,1 @ F,0,0,1,0,0.26458385,0,1 @ F,0,0,1,0,0.26458385,0,1 @ F,0,0,1,0,0.26458385,0,1 @ F,0,0,1,0,0.26458385,0,1 @ F,0,0,1,0,0.26458385,0,1 @ F,0,0,1,0,0.26458385,0,1 @ F,0,0,1,0,0.26458385,0,1 @ F,0,0,1,0,0.26458385,0,1 @ F,0,0,1,0,0.26458385,0,1 @ F,0,0,1,0,0.26458385,0,1 @ F,0,0,1,0,0.26458385,0,1 @ F,0,0,1,0,0.26458385,0,1 @ F,0,0,1,0,0.26458385,0,1"
       radius="1"
       unit="px"
       method="auto"
       mode="F"
       chamfer_steps="1"
       flexible="false"
       use_knot_distance="true"
       apply_no_radius="true"
       apply_with_radius="true"
       only_selected="false"
       hide_knots="false" /><inkscape:path-effect
       effect="fillet_chamfer"
       id="path-effect7"
       is_visible="true"
       lpeversion="1"
       nodesatellites_param="F,0,0,1,0,0.26458385,0,1 @ F,0,0,1,0,0.26458385,0,1 @ F,0,0,1,0,0.26458385,0,1 @ F,0,0,1,0,0.26458385,0,1 @ F,0,0,1,0,0.26458385,0,1 @ F,0,0,1,0,0.26458385,0,1 @ F,0,0,1,0,0.26458385,0,1 @ F,0,0,1,0,0.26458385,0,1"
       radius="1"
       unit="px"
       method="auto"
       mode="F"
       chamfer_steps="1"
       flexible="false"
       use_knot_distance="true"
       apply_no_radius="true"
       apply_with_radius="true"
       only_selected="false"
       hide_knots="false" /><inkscape:path-effect
       effect="fillet_chamfer"
       id="path-effect6"
       is_visible="true"
       lpeversion="1"
       nodesatellites_param="F,0,0,1,0,0.26458387,0,1 @ F,0,0,1,0,0.26458392,0,1 @ F,0,0,1,0,0.22044536,0,1 @ F,0,0,1,0,0.26458385,0,1 @ F,0,0,1,0,0.27322201,0,1 @ F,0,0,1,0,0.28040354,0,1 @ F,0,0,1,0,0.26458374,0,1 @ F,0,0,1,0,0.26458418,0,1 @ F,0,0,1,0,0.26456486,0,1 @ F,0,0,1,0,0.26508976,0,1 @ F,0,0,1,0,0.2852301,0,1 @ F,0,0,1,0,0.26458389,0,1 @ F,0,0,1,0,0.26458385,0,1 @ F,0,0,1,0,0.26458384,0,1 @ F,0,0,1,0,0.26458371,0,1 @ F,0,0,1,0,0.26458356,0,1 @ F,0,0,1,0,0.26458384,0,1 @ F,0,0,1,0,0.26458362,0,1 @ F,0,0,1,0,0.26458378,0,1 @ F,0,0,1,0,0.26458383,0,1 @ F,0,0,1,0,0.26458385,0,1 @ F,0,0,1,0,0.26458387,0,1 @ F,0,0,1,0,0.20007965,0,1 @ F,0,0,1,0,0.26458385,0,1 @ F,0,0,1,0,0.26458385,0,1 @ F,0,0,1,0,0.27942578,0,1 @ F,0,0,1,0,0.27316412,0,1 @ F,0,0,1,0,0.26458381,0,1 @ F,0,0,1,0,0.26458432,0,1 @ F,0,0,1,0,0.26457908,0,1 @ F,0,0,1,0,0.26458011,0,1 @ F,0,0,1,0,0.26458393,0,1 @ F,0,0,1,0,0.26458386,0,1 @ F,0,0,1,0,0.26458385,0,1 @ F,0,0,1,0,0.2645838,0,1 @ F,0,0,1,0,0.26458334,0,1 @ F,0,0,1,0,0.26458362,0,1 @ F,0,0,1,0,0.26458366,0,1 @ F,0,0,1,0,0.26458379,0,1 @ F,0,0,1,0,0.26458385,0,1"
       radius="1"
       unit="px"
       method="auto"
       mode="F"
       chamfer_steps="1"
       flexible="false"
       use_knot_distance="true"
       apply_no_radius="true"
       apply_with_radius="true"
       only_selected="false"
       hide_knots="false" /></defs><g
     inkscape:label="Layer 1"
     inkscape:groupmode="layer"
     id="layer1"><g
       id="g21"
       transform="matrix(2.2326446,0,0,2.2326446,-119.51576,-397.89397)"><g
         id="g20"
         transform="translate(1.5042515,21.971567)"><g
           id="g12"><path
             d="m 120.73101,171.15328 q 0.36042,0 0.63074,0.22526 0.27031,0.20274 0.27031,0.51811 0,0.36042 -0.22526,0.81095 -0.51811,1.03621 -1.23895,1.712 -0.72084,0.65326 -1.98231,0.65326 -1.84716,0 -2.81579,-1.10379 -0.94611,-1.10379 -0.94611,-3.22126 v -5.40631 h -1.39663 q -0.40547,0 -0.63073,-0.20274 -0.20274,-0.20274 -0.20274,-0.56316 v -0.24779 q 0,-0.36042 0.20274,-0.54063 0.22526,-0.20274 0.63073,-0.20274 h 1.39663 v -2.07241 q 0,-0.40548 0.20274,-0.60821 0.22526,-0.22527 0.60821,-0.22527 h 0.428 q 0.38295,0 0.58568,0.22527 0.20274,0.20273 0.20274,0.60821 v 2.07241 h 2.92842 q 0.40547,0 0.60821,0.20274 0.22526,0.18021 0.22526,0.54063 v 0.24779 q 0,0.36042 -0.22526,0.56316 -0.20274,0.20274 -0.60821,0.20274 h -2.92842 v 5.36126 q 0,2.61305 1.80211,2.61305 0.69831,0 1.03621,-0.36042 0.36042,-0.38295 0.74336,-1.26148 0.15769,-0.29284 0.29285,-0.40547 0.15768,-0.13516 0.40547,-0.13516 z m 19.64931,-7.56884 q 0.74336,0 0.74336,0.60822 v 0.56315 q 0,0.60821 -0.74336,0.60821 h -0.58569 l -2.81579,8.988 q -0.0676,0.22526 -0.24778,0.36042 -0.18022,0.13516 -0.45053,0.13516 h -0.60821 q -0.54063,0 -0.72084,-0.49558 l -2.36526,-6.39747 -2.38779,6.39747 q -0.18021,0.49558 -0.72084,0.49558 h -0.60821 q -0.27032,0 -0.45053,-0.13516 -0.18021,-0.13516 -0.24779,-0.36042 l -2.81579,-8.988 h -0.58568 q -0.74337,0 -0.74337,-0.60821 v -0.56315 q 0,-0.60822 0.74337,-0.60822 h 3.22126 q 0.74337,0 0.74337,0.60822 v 0.56315 q 0,0.60821 -0.74337,0.60821 h -0.58568 l 2.04989,6.60021 2.2301,-6.01452 q 0.18021,-0.54063 0.72085,-0.54063 h 0.56315 q 0.49558,0 0.72084,0.54063 l 2.20758,6.01452 2.0499,-6.60021 h -0.58569 q -0.72084,0 -0.72084,-0.60821 v -0.56315 q 0,-0.60822 0.72084,-0.60822 z m 9.01688,11.48842 q -1.59937,0 -2.81579,-0.69832 -1.21642,-0.72084 -1.86968,-2.02736 -0.65326,-1.30653 -0.65326,-3.01853 0,-1.77958 0.67579,-3.13115 0.67579,-1.35158 1.89221,-2.09495 1.21642,-0.74337 2.83831,-0.74337 1.59937,0 2.81579,0.72084 1.21642,0.69832 1.86968,2.00484 0.65326,1.30653 0.65326,3.01853 0,1.77958 -0.67578,3.13115 -0.67579,1.35158 -1.89221,2.09495 -1.21642,0.74337 -2.83832,0.74337 z m 0,-1.75705 q 1.59937,0 2.4779,-1.10379 0.87852,-1.10379 0.87852,-3.08611 0,-1.93726 -0.856,-2.97347 -0.856,-1.03621 -2.43284,-1.03621 -1.57684,0 -2.47789,1.12632 -0.87853,1.10379 -0.87853,3.06358 0,1.91473 0.856,2.97347 0.856,1.03621 2.43284,1.03621 z"
             id="text4"
             style="font-size:22.5263px;line-height:0;font-family:Solway;-inkscape-font-specification:'Solway, Normal';text-align:center;letter-spacing:1.78594px;word-spacing:5.17401px;text-anchor:middle;opacity:0.91;stroke-width:0.26398;stroke-linecap:round;stroke-linejoin:round"
             aria-label="two" /><path
             d="m 119.19922,186.8772 q 1.35158,0 2.36526,0.69831 1.03621,0.69831 1.57684,2.00484 0.56316,1.284 0.56316,3.01852 0,2.79327 -1.32905,4.39263 -1.30653,1.59936 -3.62674,1.59936 -0.99115,0 -1.89221,-0.49557 -0.90105,-0.5181 -1.50926,-1.41915 l -0.13516,1.10378 q -0.0901,0.72085 -0.74336,0.72085 h -0.15769 q -0.36042,0 -0.58568,-0.20275 -0.22526,-0.20274 -0.22526,-0.63074 v -14.19157 h -0.58569 q -0.72084,0 -0.72084,-0.60821 v -0.56315 q 0,-0.60821 0.72084,-0.60821 h 1.80211 q 0.36042,0 0.58568,0.24778 0.22526,0.22527 0.22526,0.58569 v 6.78041 q 0.428,-1.05873 1.44169,-1.73452 1.03621,-0.69832 2.2301,-0.6983 z m -0.63074,9.95662 q 1.50927,0 2.29769,-1.1038 0.78842,-1.1263 0.78842,-3.24378 0,-1.82464 -0.7659,-2.83831 -0.76589,-1.01368 -2.16252,-1.01368 -0.87853,0 -1.6219,0.49556 -0.72084,0.47306 -1.14884,1.30654 -0.428,0.83347 -0.428,1.82463 v 2.92842 q 0.60821,0.78842 1.39663,1.21642 0.78842,0.428 1.64442,0.428 z m 15.95498,-9.95662 q 0.90105,0 1.3741,0.42799 0.47305,0.40548 0.47305,1.14886 0,0.58568 -0.38294,0.99115 -0.38295,0.38295 -0.99116,0.38295 -0.54063,0 -0.90105,-0.31537 -0.36042,-0.33789 -0.40548,-0.856 -0.69831,0.0676 -1.28399,0.67579 -0.58569,0.58568 -0.94611,1.53179 -0.33789,0.92358 -0.33789,1.98232 v 3.73937 h 1.05873 q 0.74337,0 0.74337,0.60821 v 0.56316 q 0,0.60821 -0.74337,0.60821 h -3.67178 q -0.72085,0 -0.72085,-0.60821 v -0.56316 q 0,-0.60821 0.72085,-0.60821 h 0.58568 v -7.70399 h -0.58568 q -0.72085,0 -0.72085,-0.60822 v -0.56315 q 0,-0.60822 0.72085,-0.60822 h 1.77957 q 0.36042,0 0.58569,0.2478 0.24779,0.22525 0.24779,0.58568 v 1.98231 q 0.40547,-1.39663 1.30652,-2.20757 0.92358,-0.83348 2.09495,-0.83349 z m 7.28234,-1.95978 q -0.63073,0 -1.05873,-0.428 -0.428,-0.428 -0.428,-1.05874 0,-0.63074 0.428,-1.03622 0.428,-0.428 1.05873,-0.428 0.63074,0 1.03621,0.428 0.428,0.40548 0.428,1.03622 0,0.63074 -0.428,1.05874 -0.40547,0.428 -1.03621,0.428 z m -1.23894,13.4482 q -0.72085,0 -0.72085,-0.60822 v -0.56317 q 0,-0.60821 0.72085,-0.60821 h 0.58568 v -7.70399 h -0.58568 q -0.72085,0 -0.72085,-0.60822 v -0.56315 q 0,-0.60821 0.72085,-0.60821 h 1.77957 q 0.36042,0 0.58569,0.24779 0.24779,0.22526 0.24779,0.58568 v 8.6501 h 0.58568 q 0.74337,0 0.74337,0.60821 v 0.56317 q 0,0.60822 -0.74337,0.60822 z m 16.54067,-3.46906 q 0.3379,0 0.58568,0.22526 0.27032,0.20274 0.27032,0.51811 0,0.42799 -0.31537,0.87853 -0.65326,1.05874 -1.62189,1.57684 -0.96863,0.49557 -2.41032,0.49557 -1.59936,0 -2.81578,-0.74337 -1.1939,-0.74336 -1.86969,-2.09494 -0.65326,-1.35158 -0.65326,-3.10864 0,-1.73453 0.65326,-3.04105 0.67579,-1.30653 1.86969,-2.00484 1.19389,-0.72085 2.77073,-0.72085 1.30653,0 2.32021,0.45053 1.01368,0.45053 1.57684,1.284 0.56316,0.81095 0.56316,1.84716 0,0.69831 -0.38295,1.10378 -0.38294,0.40548 -1.01368,0.40548 -0.56316,0 -0.94611,-0.36042 -0.36042,-0.36042 -0.36042,-0.90105 0,-0.63074 0.428,-1.01369 -0.27031,-0.5181 -0.856,-0.78842 -0.56315,-0.27031 -1.39663,-0.27031 -1.53179,0 -2.36526,1.03621 -0.81095,1.03621 -0.81095,2.95094 0,1.95979 0.87853,3.0861 0.90105,1.12632 2.47789,1.12632 0.99116,0 1.57684,-0.31537 0.58569,-0.31537 1.10379,-1.12631 0.18021,-0.27032 0.3379,-0.38295 0.18021,-0.11263 0.40547,-0.11262 z m 15.54951,1.68947 q 0.72084,0 0.72084,0.60822 v 0.56316 q 0,0.60821 -0.72084,0.60821 h -1.55432 q -0.18021,0 -0.31537,-0.0451 -0.11263,-0.0676 -0.27031,-0.24779 l -5.42884,-5.45137 v 3.96463 h 0.58568 q 0.74337,0 0.74337,0.60822 v 0.56316 q 0,0.60821 -0.74337,0.60821 h -3.15368 q -0.74337,0 -0.74337,-0.60821 v -0.56316 q 0,-0.60822 0.74337,-0.60822 h 0.58568 v -13.11031 h -0.58568 q -0.74337,0 -0.74337,-0.60822 v -0.56315 q 0,-0.60821 0.74337,-0.60821 h 1.73453 q 0.36042,0 0.58568,0.24778 0.24779,0.22527 0.24779,0.58569 v 9.52862 l 3.10863,-2.34273 q 1.05873,-0.83347 1.73452,-0.83347 h -1.17136 q -0.72085,0 -0.72085,-0.60822 v -0.56315 q 0,-0.60821 0.72085,-0.60821 h 3.76189 q 0.74337,0 0.74337,0.60821 v 0.56315 q 0,0.60822 -0.74337,0.60822 h -0.78842 l -4.43768,3.31136 4.39262,4.39263 z"
             id="text5"
             style="font-size:22.5263px;line-height:0;font-family:Solway;-inkscape-font-specification:'Solway, Normal';text-align:center;letter-spacing:1.78594px;word-spacing:5.17526px;text-anchor:middle;opacity:0.91;stroke-width:0.26398;stroke-linecap:round;stroke-linejoin:round"
             aria-label="brick" /></g><g
           id="g11"><path
             style="font-size:9.14229px;line-height:0;font-family:'League Spartan';-inkscape-font-specification:'League Spartan, @wght=500';font-variation-settings:'wght' 500;text-align:center;letter-spacing:5.08032px;word-spacing:2.09899px;text-anchor:middle;opacity:0.91;stroke-width:0.1016;stroke-linecap:round;stroke-linejoin:round;stroke-dasharray:none"
             d="m 171.38029,206.9167 c 0.3535,0 0.65977,0.0411 0.9188,0.12342 0.26208,0.0792 0.46931,0.16456 0.62168,0.25599 0.15237,0.0884 0.24379,0.14627 0.27427,0.1737 l -0.47997,0.78167 c -0.0457,-0.0396 -0.12802,-0.0944 -0.24685,-0.16456 -0.1158,-0.0731 -0.25903,-0.13866 -0.42968,-0.19656 -0.16761,-0.0579 -0.35503,-0.0868 -0.56225,-0.0868 -0.31084,0 -0.55768,0.061 -0.74053,0.18284 -0.18285,0.11885 -0.27427,0.29256 -0.27427,0.52111 0,0.15237 0.0488,0.28646 0.14628,0.40226 0.0975,0.11581 0.23617,0.22399 0.41597,0.32455 0.18285,0.10057 0.40074,0.20266 0.65368,0.30627 0.21332,0.0884 0.42054,0.18894 0.62167,0.3017 0.20418,0.11275 0.38703,0.24532 0.54854,0.39769 0.16151,0.15237 0.28951,0.32912 0.38398,0.53025 0.0975,0.20113 0.14627,0.43273 0.14627,0.69481 0,0.27427 -0.0564,0.51807 -0.16913,0.73139 -0.11275,0.21027 -0.26817,0.38854 -0.46626,0.53482 -0.19808,0.14323 -0.42664,0.25293 -0.68567,0.32912 -0.25598,0.0731 -0.53025,0.10971 -0.8228,0.10971 -0.38398,0 -0.72986,-0.0457 -1.03765,-0.13713 -0.30475,-0.0945 -0.55159,-0.19199 -0.74053,-0.29256 -0.18894,-0.10361 -0.29865,-0.17066 -0.32912,-0.20113 l 0.50739,-0.81823 c 0.0366,0.0305 0.10364,0.0762 0.20113,0.13713 0.10057,0.0579 0.22399,0.12034 0.37027,0.18742 0.14627,0.064 0.30779,0.11885 0.48454,0.16456 0.1798,0.0427 0.36569,0.064 0.55768,0.064 0.36874,0 0.64758,-0.0792 0.83652,-0.2377 0.18894,-0.16151 0.28341,-0.36874 0.28341,-0.62168 0,-0.19199 -0.0609,-0.35807 -0.18285,-0.49825 -0.11885,-0.14323 -0.28341,-0.27275 -0.49368,-0.38855 -0.20723,-0.11581 -0.4434,-0.23009 -0.70853,-0.34284 -0.27122,-0.11885 -0.52263,-0.25293 -0.75424,-0.40226 -0.22855,-0.14932 -0.41292,-0.33064 -0.55311,-0.54396 -0.14018,-0.21637 -0.21027,-0.47845 -0.21027,-0.78624 0,-0.30779 0.0869,-0.57597 0.26056,-0.80452 0.17675,-0.23161 0.40987,-0.41141 0.69938,-0.5394 0.28951,-0.12799 0.60796,-0.19199 0.95537,-0.19199 z"
             id="path6"
             inkscape:path-effect="#path-effect11"
             inkscape:original-d="m 171.38029,206.9167 c 0.3535,0 0.65977,0.0411 0.9188,0.12342 0.26208,0.0792 0.46931,0.16456 0.62168,0.25599 0.15237,0.0884 0.24379,0.14627 0.27427,0.1737 l -0.47997,0.78167 c -0.0457,-0.0396 -0.12802,-0.0944 -0.24685,-0.16456 -0.1158,-0.0731 -0.25903,-0.13866 -0.42968,-0.19656 -0.16761,-0.0579 -0.35503,-0.0868 -0.56225,-0.0868 -0.31084,0 -0.55768,0.061 -0.74053,0.18284 -0.18285,0.11885 -0.27427,0.29256 -0.27427,0.52111 0,0.15237 0.0488,0.28646 0.14628,0.40226 0.0975,0.11581 0.23617,0.22399 0.41597,0.32455 0.18285,0.10057 0.40074,0.20266 0.65368,0.30627 0.21332,0.0884 0.42054,0.18894 0.62167,0.3017 0.20418,0.11275 0.38703,0.24532 0.54854,0.39769 0.16151,0.15237 0.28951,0.32912 0.38398,0.53025 0.0975,0.20113 0.14627,0.43273 0.14627,0.69481 0,0.27427 -0.0564,0.51807 -0.16913,0.73139 -0.11275,0.21027 -0.26817,0.38854 -0.46626,0.53482 -0.19808,0.14323 -0.42664,0.25293 -0.68567,0.32912 -0.25598,0.0731 -0.53025,0.10971 -0.8228,0.10971 -0.38398,0 -0.72986,-0.0457 -1.03765,-0.13713 -0.30475,-0.0945 -0.55159,-0.19199 -0.74053,-0.29256 -0.18894,-0.10361 -0.29865,-0.17066 -0.32912,-0.20113 l 0.50739,-0.81823 c 0.0366,0.0305 0.10364,0.0762 0.20113,0.13713 0.10057,0.0579 0.22399,0.12034 0.37027,0.18742 0.14627,0.064 0.30779,0.11885 0.48454,0.16456 0.1798,0.0427 0.36569,0.064 0.55768,0.064 0.36874,0 0.64758,-0.0792 0.83652,-0.2377 0.18894,-0.16151 0.28341,-0.36874 0.28341,-0.62168 0,-0.19199 -0.0609,-0.35807 -0.18285,-0.49825 -0.11885,-0.14323 -0.28341,-0.27275 -0.49368,-0.38855 -0.20723,-0.11581 -0.4434,-0.23009 -0.70853,-0.34284 -0.27122,-0.11885 -0.52263,-0.25293 -0.75424,-0.40226 -0.22855,-0.14932 -0.41292,-0.33064 -0.55311,-0.54396 -0.14018,-0.21637 -0.21027,-0.47845 -0.21027,-0.78624 0,-0.30779 0.0869,-0.57597 0.26056,-0.80452 0.17675,-0.23161 0.40987,-0.41141 0.69938,-0.5394 0.28951,-0.12799 0.60796,-0.19199 0.95537,-0.19199 z" /><path
             style="font-size:9.14229px;line-height:0;font-family:'League Spartan';-inkscape-font-specification:'League Spartan, @wght=500';font-variation-settings:'wght' 500;text-align:center;letter-spacing:5.08032px;word-spacing:2.09899px;text-anchor:middle;opacity:0.91;stroke-width:0.1016;stroke-linecap:round;stroke-linejoin:round;stroke-dasharray:none"
             d="m 158.78124,210.0388 c 0,0.41445 0.0868,0.7908 0.26055,1.12907 0.17371,0.33521 0.41293,0.60186 0.71767,0.79995 0.30475,0.19503 0.6552,0.29255 1.05137,0.29255 0.40226,0 0.75424,-0.0975 1.05593,-0.29255 0.30474,-0.19809 0.54244,-0.46474 0.7131,-0.79995 0.1737,-0.33827 0.26055,-0.71462 0.26055,-1.12907 0,-0.41445 -0.0868,-0.78929 -0.26055,-1.12451 -0.17066,-0.33521 -0.40836,-0.60034 -0.7131,-0.79538 -0.30169,-0.19503 -0.65367,-0.29255 -1.05593,-0.29255 -0.39617,0 -0.74662,0.0975 -1.05137,0.29255 -0.30474,0.19504 -0.54396,0.46017 -0.71767,0.79538 -0.1737,0.33522 -0.26055,0.71006 -0.26055,1.12451 z m -1.00108,0 c 0,-0.43883 0.0762,-0.84719 0.22855,-1.22507 0.15542,-0.38093 0.36874,-0.7131 0.63996,-0.99651 0.27427,-0.28341 0.59578,-0.50435 0.96452,-0.66282 0.36873,-0.15847 0.76795,-0.2377 1.19764,-0.2377 0.43578,0 0.83652,0.0792 1.20221,0.2377 0.36873,0.15847 0.69024,0.37941 0.96451,0.66282 0.27427,0.28341 0.48606,0.61558 0.63539,0.99651 0.14932,0.37788 0.22398,0.78624 0.22398,1.22507 0,0.44187 -0.0747,0.85327 -0.22398,1.2342 -0.14628,0.37789 -0.35503,0.71006 -0.62625,0.99651 -0.27122,0.28341 -0.5912,0.50435 -0.95994,0.66282 -0.36874,0.15847 -0.77405,0.2377 -1.21592,0.2377 -0.44493,0 -0.85328,-0.0792 -1.22507,-0.2377 -0.36874,-0.15847 -0.68872,-0.37941 -0.95994,-0.66282 -0.26817,-0.28645 -0.47692,-0.61862 -0.62625,-0.99651 -0.14627,-0.38093 -0.21941,-0.79233 -0.21941,-1.2342 z"
             id="path5" /><path
             style="font-size:9.14229px;line-height:0;font-family:'League Spartan';-inkscape-font-specification:'League Spartan, @wght=500';font-variation-settings:'wght' 500;text-align:center;letter-spacing:5.08032px;word-spacing:2.09899px;text-anchor:middle;opacity:0.91;stroke-width:0.1016;stroke-linecap:round;stroke-linejoin:round;stroke-dasharray:none"
             d="m 151.79501,207.02641 h 0.43078 a 0.26458385,0.26458385 45 0 1 0.26458,0.26458 v 5.50475 a 0.26458385,0.26458385 135 0 1 -0.26458,0.26458 h -0.43078 a 0.26458385,0.26458385 45 0 1 -0.26458,-0.26458 v -5.50475 a 0.26458385,0.26458385 135 0 1 0.26458,-0.26458 z"
             id="path4"
             inkscape:path-effect="#path-effect10"
             inkscape:original-d="m 151.53043,207.02641 h 0.95994 v 6.03391 h -0.95994 z" /><path
             style="font-size:9.14229px;line-height:0;font-family:'League Spartan';-inkscape-font-specification:'League Spartan, @wght=500';font-variation-settings:'wght' 500;text-align:center;letter-spacing:5.08032px;word-spacing:2.09899px;text-anchor:middle;opacity:0.91;stroke-width:0.1016;stroke-linecap:round;stroke-linejoin:round;stroke-dasharray:none"
             d="m 142.13519,207.02641 h 1.01132 c 0.14612,0 0.38317,-0.001 0.52901,0.008 0.41701,0.0248 0.78155,0.10993 1.09362,0.2553 0.13238,0.0617 0.3349,0.18632 0.45053,0.27554 0.24143,0.18628 0.43948,0.41284 0.59416,0.67968 0.0733,0.12637 0.17017,0.34324 0.21876,0.48101 0.1129,0.32009 0.17985,0.66966 0.20084,1.04873 0.008,0.14588 0.008,0.38302 7e-5,0.5289 -0.0209,0.38134 -0.0879,0.73243 -0.20095,1.05327 -0.0485,0.13778 -0.14486,0.35492 -0.21749,0.48164 -0.15317,0.2672 -0.35035,0.49472 -0.59154,0.68257 -0.11524,0.0898 -0.31743,0.21494 -0.44984,0.27655 -0.31276,0.14554 -0.67881,0.23069 -1.09815,0.25544 -0.14585,0.009 -0.3829,0.008 -0.52902,0.008 h -1.01132 a 0.26458385,0.26458385 45 0 1 -0.26458,-0.26458 v -5.50475 a 0.26458385,0.26458385 135 0 1 0.26458,-0.26458 z m 0.69079,1.1331 0,3.76771 a 0.26458385,0.26458385 45 0 0 0.26458,0.26458 c 0.13159,0 0.35705,0.002 0.50246,-0.0121 0.21296,-0.0203 0.40374,-0.0662 0.57233,-0.13776 0.13434,-0.057 0.3339,-0.18837 0.44128,-0.28725 0.11493,-0.10585 0.2133,-0.22724 0.29509,-0.36417 0.0749,-0.12534 0.16514,-0.34565 0.20628,-0.48579 0.0542,-0.18448 0.0897,-0.38198 0.10651,-0.59249 0.0117,-0.14563 0.0135,-0.38294 0.004,-0.5287 -0.0143,-0.21041 -0.048,-0.40782 -0.10134,-0.59224 -0.0406,-0.1403 -0.1306,-0.36074 -0.20515,-0.48627 -0.0827,-0.13925 -0.18257,-0.26236 -0.29965,-0.36932 -0.10777,-0.0985 -0.30746,-0.2296 -0.4415,-0.28728 -0.17049,-0.0734 -0.36296,-0.12044 -0.57742,-0.1412 -0.14539,-0.0141 -0.38266,-0.0123 -0.52878,-0.0123 a 0.25175965,0.25175965 132.00165 0 0 -0.23825,0.26458 z"
             id="path3"
             inkscape:path-effect="#path-effect9"
             inkscape:original-d="m 141.87061,207.02641 h 1.54048 c 0.64301,0 1.17326,0.12952 1.59076,0.38855 0.4175,0.25598 0.72834,0.611 0.93251,1.06507 0.20418,0.45407 0.30627,0.97366 0.30627,1.55877 0,0.58815 -0.10209,1.10926 -0.30627,1.56333 -0.20113,0.45407 -0.51044,0.81061 -0.92794,1.06964 -0.4175,0.25903 -0.94928,0.38855 -1.59533,0.38855 h -1.54048 z m 0.95537,0.86852 v 4.29687 h 0.50283 c 0.43578,0 0.79233,-0.0914 1.06965,-0.27426 0.28036,-0.18589 0.48758,-0.44036 0.62167,-0.76339 0.13409,-0.32303 0.20265,-0.69176 0.2057,-1.10621 0.003,-0.41445 -0.0622,-0.78319 -0.19655,-1.10622 -0.13409,-0.32607 -0.34284,-0.58206 -0.62625,-0.76795 -0.28037,-0.18589 -0.63844,-0.27884 -1.07422,-0.27884 z" /><path
             style="font-size:9.14229px;line-height:0;font-family:'League Spartan';-inkscape-font-specification:'League Spartan, @wght=500';font-variation-settings:'wght' 500;text-align:center;letter-spacing:5.08032px;word-spacing:2.09899px;text-anchor:middle;opacity:0.91;stroke-width:0.1016;stroke-linecap:round;stroke-linejoin:round;stroke-dasharray:none"
             d="m 135.88545,207.02641 h 0.43078 a 0.26458385,0.26458385 45 0 1 0.26458,0.26458 v 3.20547 c 0,0.14612 0.001,0.38325 -0.01,0.52892 -0.0218,0.28646 -0.0801,0.54827 -0.17481,0.78541 -0.0542,0.13563 -0.16757,0.34478 -0.25197,0.46396 -0.12784,0.18051 -0.27987,0.33541 -0.45609,0.46469 -0.11775,0.0864 -0.32626,0.20113 -0.46192,0.2552 -0.22057,0.0879 -0.46108,0.14279 -0.72152,0.1646 -0.14558,0.0122 -0.38301,0.0122 -0.52857,-1.2e-4 -0.25932,-0.0219 -0.49975,-0.0769 -0.72128,-0.165 -0.13571,-0.054 -0.34461,-0.16793 -0.46282,-0.25367 -0.17879,-0.12969 -0.33319,-0.28521 -0.46319,-0.46656 -0.0851,-0.1187 -0.1992,-0.32748 -0.25336,-0.4631 -0.0947,-0.23715 -0.15297,-0.49895 -0.17481,-0.78541 -0.0111,-0.14567 -0.01,-0.3828 -0.01,-0.52892 v -3.20547 a 0.26458385,0.26458385 135 0 1 0.26458,-0.26458 h 0.43078 a 0.26458385,0.26458385 45 0 1 0.26458,0.26458 v 3.15518 c 0,0.14612 -0.002,0.38348 0.0138,0.52867 0.0131,0.11935 0.0353,0.23135 0.0668,0.33602 0.0421,0.13974 0.15002,0.35311 0.23897,0.4688 0.0437,0.0568 0.0909,0.10904 0.14171,0.15671 0.10638,0.0998 0.31233,0.22298 0.45023,0.27053 0.069,0.0238 0.1405,0.042 0.21461,0.0547 0.1439,0.0246 0.38297,0.0246 0.52681,-9e-5 0.0728,-0.0125 0.14293,-0.0305 0.21045,-0.0538 0.13788,-0.0477 0.34358,-0.17145 0.44957,-0.27163 0.05,-0.0473 0.0964,-0.099 0.13918,-0.15527 0.0884,-0.11618 0.19516,-0.33021 0.23723,-0.46995 0.0315,-0.10467 0.0538,-0.21667 0.0668,-0.33602 0.0159,-0.14519 0.0138,-0.38255 0.0138,-0.52867 l 0,-3.15518 a 0.26458385,0.26458385 135 0 1 0.26458,-0.26458 z"
             id="path2"
             inkscape:path-effect="#path-effect8"
             inkscape:original-d="m 135.62087,207.02641 h 0.95994 v 3.73463 c 0,0.49673 -0.099,0.92641 -0.29712,1.28906 -0.19503,0.35959 -0.46778,0.63691 -0.81824,0.83195 -0.35045,0.19199 -0.75881,0.28798 -1.22506,0.28798 -0.46321,0 -0.87157,-0.096 -1.22507,-0.28798 -0.3535,-0.19504 -0.62929,-0.47236 -0.82738,-0.83195 -0.19808,-0.36265 -0.29712,-0.79233 -0.29712,-1.28906 v -3.73463 h 0.95994 v 3.68434 c 0,0.32913 0.0594,0.61102 0.17827,0.84567 0.1219,0.23465 0.28646,0.41444 0.49369,0.53939 0.21027,0.12495 0.4495,0.18742 0.71767,0.18742 0.26817,0 0.50587,-0.0625 0.7131,-0.18742 0.20722,-0.12495 0.37026,-0.30474 0.48911,-0.53939 0.11885,-0.23465 0.17827,-0.51654 0.17827,-0.84567 z" /><path
             style="font-size:9.14229px;line-height:0;font-family:'League Spartan';-inkscape-font-specification:'League Spartan, @wght=500';font-variation-settings:'wght' 500;text-align:center;letter-spacing:5.08032px;word-spacing:2.09899px;text-anchor:middle;opacity:0.91;stroke-width:0.1016;stroke-linecap:round;stroke-linejoin:round;stroke-dasharray:none"
             d="m 123.80403,207.88579 h -1.03874 a 0.26458385,0.26458385 45 0 1 -0.26458,-0.26458 l 0,-0.33022 a 0.26458385,0.26458385 135 0 1 0.26458,-0.26458 h 3.57116 a 0.26458385,0.26458385 45 0 1 0.26458,0.26458 v 0.33022 a 0.26458385,0.26458385 135 0 1 -0.26458,0.26458 h -1.03874 a 0.26458385,0.26458385 135 0 0 -0.26458,0.26458 l 0,4.64537 a 0.26458385,0.26458385 135 0 1 -0.26458,0.26458 l -0.43536,0 a 0.26458385,0.26458385 45 0 1 -0.26458,-0.26458 l 0,-4.64537 a 0.26458385,0.26458385 45 0 0 -0.26458,-0.26458 z"
             id="path1"
             inkscape:path-effect="#path-effect7"
             inkscape:original-d="m 124.06861,207.88579 h -1.5679 v -0.85938 h 4.10032 v 0.85938 h -1.5679 v 5.17453 h -0.96452 z" /><path
             style="font-size:9.14229px;line-height:0;font-family:'League Spartan';-inkscape-font-specification:'League Spartan, @wght=500';font-variation-settings:'wght' 500;text-align:center;letter-spacing:5.08032px;word-spacing:2.09899px;text-anchor:middle;opacity:0.91;stroke-width:0.1016;stroke-linecap:round;stroke-linejoin:round;stroke-dasharray:none"
             d="m 115.47773,206.92492 c 0.14142,0.009 0.27411,0.0259 0.39809,0.0502 0.1433,0.0281 0.37025,0.098 0.50719,0.14891 0.0626,0.0233 0.1209,0.047 0.17495,0.0712 0.11102,0.0498 0.28212,0.14902 0.3848,0.21447 0.0486,0.031 0.0233,0.16105 -0.0531,0.28557 l -0.19855,0.32337 c -0.079,0.12859 -0.23993,0.15764 -0.36938,0.0804 -0.0113,-0.007 -0.12709,-0.0798 -0.26951,-0.14025 -0.0982,-0.0416 -0.293,-0.10891 -0.4371,-0.13201 -0.0139,-0.002 -0.0278,-0.004 -0.0419,-0.006 -0.1447,-0.0196 -0.383,-0.0199 -0.5277,-3.9e-4 -0.0859,0.0116 -0.16534,0.0293 -0.23847,0.053 -0.13854,0.045 -0.34752,0.17533 -0.42421,0.29831 -0.0153,0.0245 -0.0286,0.0502 -0.0399,0.0771 -0.0564,0.13408 -0.0545,0.38412 0.006,0.51634 0.0393,0.0863 0.17537,0.24403 0.3018,0.3374 0.10887,0.0804 0.31017,0.18939 0.44174,0.25293 0.0559,0.027 0.11428,0.0541 0.17512,0.0813 0.13338,0.0597 0.35301,0.14879 0.48534,0.21075 0.049,0.0229 0.0976,0.0465 0.14596,0.0708 0.13056,0.0656 0.33831,0.18028 0.45903,0.26251 0.0416,0.0283 0.0822,0.0577 0.12169,0.088 0.11593,0.0889 0.2897,0.2516 0.3797,0.36655 0.0266,0.034 0.0519,0.0689 0.0759,0.1048 0.0811,0.12137 0.18388,0.33707 0.22133,0.47809 0.0157,0.059 0.028,0.12003 0.0369,0.1832 0.0205,0.14457 0.0205,0.38303 -8.4e-4,0.52745 -0.0114,0.0773 -0.0281,0.15172 -0.0499,0.22335 -0.0426,0.13957 -0.15486,0.35074 -0.2443,0.46608 -0.0379,0.0489 -0.0788,0.0956 -0.12257,0.14011 -0.10239,0.10406 -0.29542,0.24398 -0.42377,0.31362 -0.0679,0.0368 -0.1386,0.0704 -0.21225,0.10086 -0.135,0.0558 -0.36342,0.12137 -0.50709,0.14774 -0.0979,0.018 -0.19818,0.031 -0.30093,0.0393 -0.14562,0.0116 -0.38289,0.0113 -0.52875,0.003 -0.18155,-0.0107 -0.35373,-0.0326 -0.51654,-0.0657 -0.14314,-0.0291 -0.37012,-0.0982 -0.50782,-0.14705 -0.11322,-0.0402 -0.21634,-0.0809 -0.30936,-0.12219 -0.10098,-0.0448 -0.25899,-0.12958 -0.35434,-0.18549 -0.0885,-0.0519 -0.0924,-0.20349 -0.0154,-0.32768 l 0.22852,-0.36851 c 0.077,-0.12419 0.22656,-0.15898 0.34057,-0.0877 0.31494,0.16228 0.48223,0.23734 0.62541,0.28471 0.12534,0.0415 0.34474,0.0962 0.48973,0.11364 0.0111,0.001 0.0221,0.003 0.0332,0.004 0.14524,0.0155 0.38316,0.0165 0.52807,-0.002 0.12999,-0.0162 0.24543,-0.0453 0.3463,-0.0872 0.13442,-0.0558 0.32274,-0.21036 0.39814,-0.3348 0.0307,-0.0507 0.0551,-0.10445 0.0731,-0.16128 0.044,-0.13875 0.0442,-0.38343 -0.004,-0.52059 -0.002,-0.004 -0.003,-0.009 -0.005,-0.0129 -0.0509,-0.13614 -0.21108,-0.31836 -0.32401,-0.41072 -0.026,-0.0212 -0.0531,-0.0421 -0.0815,-0.0626 -0.11834,-0.0856 -0.32709,-0.19893 -0.45761,-0.26461 -0.0745,-0.0375 -0.15209,-0.0748 -0.23278,-0.11198 -0.13272,-0.0611 -0.35081,-0.15395 -0.48182,-0.21865 -0.099,-0.0489 -0.19506,-0.1 -0.28826,-0.15328 -0.12683,-0.0726 -0.32692,-0.20073 -0.43792,-0.29561 -0.0647,-0.0553 -0.12479,-0.11402 -0.18021,-0.17609 -0.0972,-0.10891 -0.22843,-0.30903 -0.27957,-0.4456 -0.0335,-0.0895 -0.0579,-0.18506 -0.073,-0.28657 -0.0216,-0.14439 -0.0219,-0.38332 0.004,-0.52692 0.0202,-0.11129 0.0536,-0.21652 0.10038,-0.31567 0.0622,-0.13192 0.20799,-0.32179 0.3139,-0.42225 0.0866,-0.0822 0.18276,-0.15563 0.28839,-0.22033 0.12454,-0.0763 0.34258,-0.17199 0.48235,-0.21428 0.14153,-0.0428 0.28927,-0.0719 0.44322,-0.0872 0.14536,-0.0145 0.26419,-0.0129 0.26419,-0.0129 z"
             id="text6"
             inkscape:path-effect="#path-effect6"
             inkscape:original-d="m 115.21332,206.9167 c 0.35351,0 0.65977,0.0411 0.9188,0.12342 0.26208,0.0792 0.46931,0.16456 0.62168,0.25599 0.15237,0.0884 0.2438,0.14627 0.27427,0.1737 l -0.47997,0.78167 c -0.0457,-0.0396 -0.12801,-0.0944 -0.24684,-0.16456 -0.11581,-0.0731 -0.25904,-0.13866 -0.42969,-0.19656 -0.16761,-0.0579 -0.35502,-0.0868 -0.56225,-0.0868 -0.31084,0 -0.55768,0.061 -0.74053,0.18284 -0.18285,0.11885 -0.27427,0.29256 -0.27427,0.52111 0,0.15237 0.0488,0.28646 0.14628,0.40226 0.0975,0.11581 0.23618,0.22399 0.41598,0.32455 0.18284,0.10057 0.40073,0.20266 0.65367,0.30627 0.21332,0.0884 0.42054,0.18894 0.62167,0.3017 0.20418,0.11275 0.38703,0.24532 0.54854,0.39769 0.16151,0.15237 0.28951,0.32912 0.38398,0.53025 0.0975,0.20113 0.14627,0.43273 0.14627,0.69481 0,0.27427 -0.0564,0.51807 -0.16913,0.73139 -0.11275,0.21027 -0.26817,0.38854 -0.46625,0.53482 -0.19809,0.14323 -0.42665,0.25293 -0.68568,0.32912 -0.25598,0.0731 -0.53025,0.10971 -0.8228,0.10971 -0.38398,0 -0.72986,-0.0457 -1.03765,-0.13713 -0.30475,-0.0945 -0.55159,-0.19199 -0.74053,-0.29256 -0.18894,-0.10361 -0.29865,-0.17066 -0.32912,-0.20113 l 0.5074,-0.81823 c 0.0366,0.0305 0.10364,0.0762 0.20113,0.13713 0.10057,0.0579 0.22399,0.12034 0.37026,0.18742 0.14628,0.064 0.30779,0.11885 0.48454,0.16456 0.1798,0.0427 0.36569,0.064 0.55768,0.064 0.36874,0 0.64758,-0.0792 0.83652,-0.2377 0.18894,-0.16151 0.28341,-0.36874 0.28341,-0.62168 0,-0.19199 -0.0609,-0.35807 -0.18284,-0.49825 -0.11885,-0.14323 -0.28342,-0.27275 -0.49369,-0.38855 -0.20723,-0.11581 -0.4434,-0.23009 -0.70853,-0.34284 -0.27122,-0.11885 -0.52263,-0.25293 -0.75423,-0.40226 -0.22856,-0.14932 -0.41293,-0.33064 -0.55311,-0.54396 -0.14019,-0.21637 -0.21028,-0.47845 -0.21028,-0.78624 0,-0.30779 0.0868,-0.57597 0.26056,-0.80452 0.17675,-0.23161 0.40988,-0.41141 0.69939,-0.5394 0.2895,-0.12799 0.60795,-0.19199 0.95536,-0.19199 z" /></g></g><g
         id="g19"
         transform="translate(-1.6707547,21.400077)"><path
           style="font-variation-settings:'wght' 500;fill:#ad5136;fill-opacity:1;stroke-width:0.0897279;stroke-linecap:round;stroke-linejoin:round;stroke-dasharray:none"
           id="rect12-8"
           width="38.100075"
           height="16.894766"
           x="65.476311"
           y="-199.66069"
           transform="scale(1,-1)"
           inkscape:transform-center-x="8.05232"
           inkscape:transform-center-y="-12.11858"
           inkscape:path-effect="#path-effect17;#path-effect19"
           sodipodi:type="rect"
           d="m 66.294914,-199.66069 0.405216,-0.0198 0.537964,0.0511 0.518415,-0.0244 0.497836,-0.0136 0.444044,-0.004 0.561614,0.0152 0.434893,-0.0352 0.483648,0.0162 0.544506,0.003 0.401256,0.0103 0.467013,0.006 0.582581,0.0114 0.51165,-0.0238 0.491545,-0.0381 0.53028,0.0287 0.467029,5.8e-4 0.493605,0.007 0.45057,0.001 0.532597,0.0389 0.549498,-0.0442 0.423599,0.002 0.396275,3.3e-4 0.600527,0.01 0.464164,-0.0227 0.535253,-0.004 0.444492,-0.005 0.549114,-0.0105 0.482284,-0.0194 0.505099,-0.002 0.484181,-0.003 0.505293,-0.0111 0.46899,0.004 0.511283,0.0168 0.488427,0.0196 0.478514,0.0716 0.416076,-0.005 0.521679,0.0186 0.581031,-0.0686 0.451426,0.003 0.462962,0.0687 0.532015,-0.0202 0.443428,0.004 0.570593,-0.009 0.46703,-0.003 0.476051,-0.0608 0.595877,-0.002 0.383028,9.9e-4 0.428998,-0.0521 0.571368,-0.0522 0.438899,-0.0395 0.484339,0.0121 0.471926,0.0679 0.58712,0.0209 0.460725,-0.0344 0.53203,0.003 0.473898,0.0175 0.508194,0.002 0.561873,0.0617 0.393109,0.003 0.528225,0.0475 0.532556,-0.006 0.440991,-0.024 0.473686,0.0179 0.524655,0.001 0.489964,0.0122 0.508348,-0.002 0.473392,-3.6e-4 0.506343,-0.0254 0.503886,0.008 0.4823,-0.0324 0.48435,0.0741 0.48516,0.004 0.6116,-0.0309 0.38064,-0.0237 c 0.14769,0.004 0.28628,0.0463 0.40456,0.1167 0.11877,0.0713 0.24725,0.16037 0.31614,0.2779 0.0691,0.11786 0.12332,0.20756 0.12332,0.35389 l -0.001,0.5017 0.002,0.51455 -0.0699,0.43092 0.024,0.51427 -0.005,0.52177 -0.0366,0.4673 0.0235,0.50458 0.0254,0.5062 -0.002,0.51054 0.0117,0.50564 0.0337,0.45983 -0.0961,0.50046 0.0768,0.52095 0.0324,0.42685 -0.0175,0.52535 0.06,0.5185 0.0552,0.55015 0.008,0.44233 -0.011,0.53627 -0.11405,0.4541 -0.003,0.45891 0.0248,0.53125 -0.0207,0.50911 -0.0643,0.52529 0.002,0.46083 -0.0113,0.5079 0.0336,0.48436 -0.0612,0.48733 0.0366,0.50159 0.019,0.5532 0.002,0.46024 c -2.5e-4,0.13638 -0.0371,0.28919 -0.10611,0.40245 -0.0655,0.13454 -0.15332,0.20725 -0.27007,0.26938 -0.11912,0.0634 -0.31695,0.0964 -0.46454,0.0964 l -0.47388,-0.001 -0.51985,-0.0242 -0.52772,0.002 -0.47339,0.0119 -0.44076,-0.045 -0.517642,-0.003 -0.484166,-0.007 -0.459297,-0.0225 -0.527623,0.001 -0.514815,0.004 -0.447397,-0.01 -0.542701,0.002 -0.440809,0.0217 -0.525791,0.0248 -0.38355,7e-5 -0.597937,0.0504 -0.501548,0.004 -0.546947,-0.006 -0.43553,-0.004 -0.501716,-0.003 -0.496147,0.009 -0.499764,-0.007 -0.476729,-0.003 -0.470003,-0.0431 -0.476828,0.008 -0.545425,5.4e-4 -0.47505,-0.002 -0.515485,-0.001 -0.483855,0.0226 -0.458046,-0.0257 -0.510824,0.01 -0.492351,-0.0131 -0.495086,0.0375 -0.493342,0.01 -0.493187,-9.6e-4 -0.460159,0.0125 -0.544475,-0.006 -0.534373,3e-4 -0.436397,0.002 -0.477529,-0.10047 -0.519035,0.005 -0.485687,-0.021 -0.467681,0.009 -0.50068,0.0321 -0.520388,-0.005 -0.460775,-0.0265 -0.481733,-1e-4 -0.591855,-0.007 -0.337912,0.0508 -0.577781,0.003 -0.473878,0.01 -0.524185,0.0707 -0.499069,-0.0232 -0.4716,-0.002 -0.556858,0.0286 -0.438788,0.0109 -0.481615,0.0628 -0.510212,0.0341 -0.460362,0.008 -0.47217,-0.005 -0.522938,-0.023 -0.571725,0.0173 -0.458436,-0.0188 -0.454216,-0.0254 -0.473389,0.005 -0.527742,0.0276 -0.471958,-0.0163 -0.49394,-0.0109 -0.484873,-0.0708 -0.501012,-0.007 -0.464345,0.006 -0.525357,0.003 -0.486186,-0.0203 -0.500179,-0.007 c -0.14602,-8e-4 -0.24419,-0.041 -0.361736,-0.11027 -0.08178,-0.0711 -0.250309,-0.15685 -0.329287,-0.27834 -0.07518,-0.11566 -0.12054,-0.25697 -0.12054,-0.3995 l -0.0048,-0.51706 0.0241,-0.46021 0.0022,-0.48123 -0.01078,-0.50984 0.01044,-0.48909 -0.01447,-0.51727 -0.0038,-0.52067 0.06112,-0.4669 0.01812,-0.48746 0.0084,-0.48024 -0.01042,-0.49066 -0.0059,-0.58386 -0.02072,-0.41238 0.02182,-0.50284 0.02327,-0.50576 -0.0049,-0.52403 0.03648,-0.44806 -0.0043,-0.49818 -0.0083,-0.50532 0.04548,-0.47985 -0.03169,-0.49243 -0.01374,-0.49396 -0.07398,-0.4752 0.02551,-0.48144 0.103499,-0.56146 -0.05602,-0.46965 -0.01137,-0.48331 -0.02239,-0.51753 0.04655,-0.47371 -0.06221,-0.4906 -0.05213,-0.50033 c 0.001,-0.14438 0.05787,-0.27336 0.127214,-0.39018 0.08509,-0.10852 0.158621,-0.2118 0.270183,-0.28202 0.114521,-0.0721 0.276281,-0.11633 0.424319,-0.11633 z" /><path
           style="font-variation-settings:'wght' 500;fill:#ad5136;fill-opacity:1;stroke-width:0.1016;stroke-linecap:round;stroke-linejoin:round;stroke-dasharray:none"
           id="rect12-8-1"
           width="38.100075"
           height="16.894766"
           x="55.215462"
           y="-177.47426"
           transform="scale(1,-1)"
           inkscape:transform-center-x="8.05232"
           inkscape:transform-center-y="-12.11858"
           inkscape:path-effect="#path-effect16;#path-effect18"
           sodipodi:type="rect"
           d="m 55.994409,-177.48914 0.479932,-0.0151 0.608641,0.0128 0.385651,-0.0233 0.495492,-0.0156 0.51071,-4.6e-4 0.518259,0.0104 0.442516,-0.032 0.565337,0.0141 0.449425,0.001 0.516752,0.0106 0.472947,0.002 0.494301,0.001 0.457669,-0.0638 0.499171,-0.0365 0.560098,0.004 0.455684,0.004 0.494393,0.004 0.497325,0.006 0.613888,0.007 0.349898,-0.0729 0.520039,0.008 0.487419,0.007 0.564983,0.0263 0.415422,-0.005 0.49499,-0.001 0.484291,-0.0123 0.487289,-0.0123 0.502838,-0.0345 0.491986,-0.002 0.499397,0.003 0.480704,-0.0492 0.592246,0.0255 0.429808,0.0168 0.509734,0.0246 0.535604,0.0109 0.386003,-0.0308 0.550521,0.0163 0.440792,-0.0727 0.528537,0.014 0.542123,0.009 0.415031,-0.0116 0.553675,0.0284 0.439001,-0.005 0.502824,0.004 0.465761,-0.0585 0.507271,-0.0174 0.489006,-0.0431 0.51225,-0.0273 0.49987,-0.0651 0.501965,-0.0187 0.500474,0.0218 0.607975,0.0372 0.421444,0.021 0.431014,-0.0799 0.510369,0.0211 0.522467,0.0393 0.460208,0.0183 0.5579,0.0367 0.431295,0.02 0.556367,0.0333 0.424032,0.0165 0.473495,-0.004 0.551977,0.0376 0.466273,0.0284 0.503563,0.0352 0.505659,0.04 0.532186,0.0366 0.388399,-0.0387 0.530515,0.0319 0.463102,-0.004 0.597179,0.0412 0.488972,0.0479 0.410361,-0.018 0.484167,0.045 c 0.148963,0.003 0.335107,0.0471 0.453962,0.11712 0.16249,0.0711 0.194983,0.15445 0.252354,0.26671 0.06107,0.1195 0.09262,0.19203 0.09262,0.34272 l 0.0051,0.49895 0.02684,0.50424 -0.01044,0.46141 -0.01547,0.50094 0.08233,0.53966 -0.01337,0.45819 -0.01723,0.49729 -0.0032,0.50848 0.0016,0.49704 0.02313,0.49903 -0.03335,0.44337 -0.0041,0.5168 0.0832,0.54714 -0.01062,0.40576 -0.0088,0.55569 -0.0069,0.50626 0.07708,0.5213 -0.02393,0.46299 0.04987,0.53058 -0.02428,0.4683 -0.0282,0.41686 -0.04534,0.54803 0.0822,0.53409 0.03556,0.5105 -0.01656,0.49204 -0.0061,0.49575 -0.0236,0.49905 -0.03941,0.48759 0.03143,0.50411 -0.01037,0.50319 -0.07249,0.46864 c -0.02711,0.14581 0.02904,0.29397 -0.05189,0.41142 0.02438,0.14111 -0.211913,0.24899 -0.379726,0.31501 -0.136252,0.0536 -0.29449,0.0765 -0.425448,0.0765 l -0.499697,-0.005 -0.496222,-0.0171 -0.450163,0.0191 -0.51861,0.006 -0.526004,-0.0477 -0.474172,-0.005 -0.491897,-7.8e-4 -0.509905,-0.0276 -0.476397,9.9e-4 -0.483986,0.006 -0.516586,-0.01 -0.454821,0.0152 -0.492382,0.0167 -0.472971,0.023 -0.541725,-2.2e-4 -0.385185,0.0102 -0.585003,0.009 -0.520858,-0.01 -0.485789,-0.002 -0.491504,-6.3e-4 -0.482486,0.007 -0.507995,-0.004 -0.493673,-0.013 -0.507598,-0.0369 -0.472043,0.002 -0.501778,-0.002 -0.501644,-0.0211 -0.489471,-0.005 -0.402802,0.0106 -0.580744,-0.0109 -0.445507,0.0242 -0.56541,-0.0419 -0.372119,0.0266 -0.583903,0.003 -0.497208,0.002 -0.487632,0.003 -0.500194,9.2e-4 -0.478955,0.0109 -0.505412,0.003 -0.49875,-0.0997 -0.491081,0.005 -0.51825,-0.0207 -0.457036,0.0134 -0.463806,0.0218 -0.545343,-0.002 -0.49243,-0.015 -0.493908,-0.0279 -0.504724,-0.0109 -0.427445,0.0151 -0.535497,0.009 -0.476682,0.0204 -0.424084,0.0234 -0.604381,-0.0135 -0.477298,0.003 -0.470633,0.01 -0.478139,0.016 -0.424966,0.0117 -0.527578,0.0281 -0.531608,0.0194 -0.4629,0.0257 -0.577085,-0.0176 -0.408506,0.008 -0.585589,-0.0444 -0.48647,-0.0147 -0.456718,0.009 -0.439644,0.0135 -0.570387,0.001 -0.478887,0.0152 -0.529763,-0.0673 -0.471149,0.0217 -0.472736,0.0355 -0.492812,0.031 -0.529215,-0.004 -0.464186,0.0377 c -0.149607,-0.002 -0.290493,-0.0443 -0.409634,-0.11411 -0.120518,-0.0709 -0.187255,-0.15328 -0.256088,-0.27042 -0.06916,-0.1177 -0.08525,-0.26833 -0.08525,-0.4148 l -0.02495,-0.53043 0.0084,-0.45255 0.03019,-0.48099 0.02262,-0.50874 0.05713,-0.47295 -0.0114,-0.53177 -0.0087,-0.5085 -0.0069,-0.51249 -0.0096,-0.45035 0.02525,-0.48085 0.0085,-0.49718 -0.01091,-0.56886 0.01426,-0.41696 -0.0088,-0.50403 -0.03823,-0.54217 -0.01212,-0.47312 -0.0036,-0.46211 -0.0097,-0.49799 -0.02119,-0.50405 -0.0017,-0.47929 0.0011,-0.49341 3.4e-4,-0.49443 0.0045,-0.49203 0.04384,-0.47374 -0.01747,-0.54763 -0.01639,-0.46655 -0.0058,-0.48669 -0.0356,-0.51691 -0.0094,-0.47458 -0.0013,-0.48871 -0.02925,-0.52221 c 0.0046,-0.13805 0.05495,-0.26635 0.125857,-0.38035 0.07832,-0.11008 0.167339,-0.20987 0.282508,-0.27859 0.116629,-0.0696 0.237223,-0.12545 0.384269,-0.12545 z" /></g></g></g></svg>
